<?xml version="1.0" encoding="utf-8"?>
<!-- Generator: Adobe Illustrator 24.1.3, SVG Export Plug-In . SVG Version: 6.00 Build 0)  -->
<svg version="1.1" id="Layer_1" xmlns="http://www.w3.org/2000/svg" xmlns:xlink="http://www.w3.org/1999/xlink" x="0px" y="0px"
	 viewBox="0 0 904.72 329.13" style="enable-background:new 0 0 904.72 329.13;" xml:space="preserve">
<style type="text/css">
	.st0{fill:#D22026;}
	.st1{fill:url(#SVGID_1_);}
	.st2{fill:none;}
	.st3{font-family:'SFProDisplay-Regular';}
	.st4{font-size:200px;}
</style>
<g>
	<g>
		<path class="st0" d="M162.28,56.51c-65.43,0-118.47,53.04-118.47,118.47v99.53h99.53c65.43,0,118.47-53.04,118.47-118.47V56.51
			H162.28z M202.84,181.81h-33.73v33.73v0h-32.6v-33.73h-33.73v-32.6h33.73v-33.73h32.6l0.05,33.73h33.67V181.81z"/>
		<linearGradient id="SVGID_1_" gradientUnits="userSpaceOnUse" x1="43.8117" y1="165.5118" x2="261.811" y2="165.5118">
			<stop  offset="2.237672e-07" style="stop-color:#ED1C24"/>
			<stop  offset="0.4496" style="stop-color:#EF4747"/>
			<stop  offset="0.8166" style="stop-color:#F15F64"/>
		</linearGradient>
		<path class="st1" d="M43.81,174.98v99.53h0l92.7-92.7v0h-33.73v-32.6h33.73v-33.73h32.6l0.05,33.67l92.65-92.65v0h-99.53
			C96.85,56.51,43.81,109.55,43.81,174.98z"/>
	</g>
	<rect x="291.73" y="97.64" class="st2" width="625.59" height="144.09"/>
	<text transform="matrix(1 0 0 1 291.7324 238.5563)" class="st3 st4">iHealth</text>
</g>
</svg>
